<svg id="visual" viewBox="0 0 900 600" width="900" height="600" xmlns="http://www.w3.org/2000/svg" xmlns:xlink="http://www.w3.org/1999/xlink" version="1.1"><rect x="0" y="0" width="900" height="600" fill="#003060"></rect><defs><linearGradient id="grad1_0" x1="33.3%" y1="0%" x2="100%" y2="100%"><stop offset="20%" stop-color="#003060" stop-opacity="1"></stop><stop offset="80%" stop-color="#003060" stop-opacity="1"></stop></linearGradient></defs><defs><linearGradient id="grad2_0" x1="0%" y1="0%" x2="66.7%" y2="100%"><stop offset="20%" stop-color="#003060" stop-opacity="1"></stop><stop offset="80%" stop-color="#003060" stop-opacity="1"></stop></linearGradient></defs><g transform="translate(900, 0)"><path d="M0 486.7C-64 468.1 -128 449.5 -171.1 413C-214.1 376.5 -236.3 322.1 -285.7 285.7C-335 249.3 -411.6 230.9 -449.7 186.3C-487.7 141.7 -487.2 70.8 -486.7 0L0 0Z" fill="#0E86D4"></path></g><g transform="translate(0, 600)"><path d="M0 -486.7C63.8 -479.9 127.7 -473.1 186.3 -449.7C244.8 -426.3 298.2 -386.4 338.7 -338.7C379.3 -291 407.1 -235.7 429.6 -177.9C452.2 -120.2 469.5 -60.1 486.7 0L0 0Z" fill="#0E86D4"></path></g></svg>