<svg id="visual" viewBox="0 0 900 600" width="900" height="600" xmlns="http://www.w3.org/2000/svg" xmlns:xlink="http://www.w3.org/1999/xlink" version="1.1"><rect x="0" y="0" width="900" height="600" fill="#003060"></rect><path d="M0 401L21.5 392.5C43 384 86 367 128.8 361.2C171.7 355.3 214.3 360.7 257.2 372.8C300 385 343 404 385.8 403.2C428.7 402.3 471.3 381.7 514.2 385.8C557 390 600 419 642.8 417.7C685.7 416.3 728.3 384.7 771.2 380.2C814 375.7 857 398.3 878.5 409.7L900 421L900 601L878.5 601C857 601 814 601 771.2 601C728.3 601 685.7 601 642.8 601C600 601 557 601 514.2 601C471.3 601 428.7 601 385.8 601C343 601 300 601 257.2 601C214.3 601 171.7 601 128.8 601C86 601 43 601 21.5 601L0 601Z" fill="#0e86d4"></path><path d="M0 427L21.5 433C43 439 86 451 128.8 454.7C171.7 458.3 214.3 453.7 257.2 444.8C300 436 343 423 385.8 426.3C428.7 429.7 471.3 449.3 514.2 448.3C557 447.3 600 425.7 642.8 418.5C685.7 411.3 728.3 418.7 771.2 426.5C814 434.3 857 442.7 878.5 446.8L900 451L900 601L878.5 601C857 601 814 601 771.2 601C728.3 601 685.7 601 642.8 601C600 601 557 601 514.2 601C471.3 601 428.7 601 385.8 601C343 601 300 601 257.2 601C214.3 601 171.7 601 128.8 601C86 601 43 601 21.5 601L0 601Z" fill="#0d7bc6"></path><path d="M0 459L21.5 467.5C43 476 86 493 128.8 499.8C171.7 506.7 214.3 503.3 257.2 497.5C300 491.7 343 483.3 385.8 477.3C428.7 471.3 471.3 467.7 514.2 463.5C557 459.3 600 454.7 642.8 458.8C685.7 463 728.3 476 771.2 482C814 488 857 487 878.5 486.5L900 486L900 601L878.5 601C857 601 814 601 771.2 601C728.3 601 685.7 601 642.8 601C600 601 557 601 514.2 601C471.3 601 428.7 601 385.8 601C343 601 300 601 257.2 601C214.3 601 171.7 601 128.8 601C86 601 43 601 21.5 601L0 601Z" fill="#0b71b8"></path><path d="M0 539L21.5 534C43 529 86 519 128.8 511C171.7 503 214.3 497 257.2 492.7C300 488.3 343 485.7 385.8 491.8C428.7 498 471.3 513 514.2 514.2C557 515.3 600 502.7 642.8 504.2C685.7 505.7 728.3 521.3 771.2 523C814 524.7 857 512.3 878.5 506.2L900 500L900 601L878.5 601C857 601 814 601 771.2 601C728.3 601 685.7 601 642.8 601C600 601 557 601 514.2 601C471.3 601 428.7 601 385.8 601C343 601 300 601 257.2 601C214.3 601 171.7 601 128.8 601C86 601 43 601 21.5 601L0 601Z" fill="#0866aa"></path><path d="M0 568L21.5 566.8C43 565.7 86 563.3 128.8 563.3C171.7 563.3 214.3 565.7 257.2 566.7C300 567.7 343 567.3 385.8 565.5C428.7 563.7 471.3 560.3 514.2 557C557 553.7 600 550.3 642.8 551.2C685.7 552 728.3 557 771.2 559.3C814 561.7 857 561.3 878.5 561.2L900 561L900 601L878.5 601C857 601 814 601 771.2 601C728.3 601 685.7 601 642.8 601C600 601 557 601 514.2 601C471.3 601 428.7 601 385.8 601C343 601 300 601 257.2 601C214.3 601 171.7 601 128.8 601C86 601 43 601 21.5 601L0 601Z" fill="#055c9d"></path></svg>