<?xml version="1.0" standalone="no"?>
<!DOCTYPE svg PUBLIC "-//W3C//DTD SVG 20010904//EN"
 "http://www.w3.org/TR/2001/REC-SVG-20010904/DTD/svg10.dtd">
<svg version="1.0" xmlns="http://www.w3.org/2000/svg"
 width="2000.000000pt" height="1500.000000pt" viewBox="0 0 2000.000000 1500.000000"
 preserveAspectRatio="xMidYMid meet">

<g transform="translate(0.000000,1500.000000) scale(0.100000,-0.100000)"
fill="#000000" stroke="none">
<path d="M14248 8795 c-322 -54 -510 -239 -597 -586 -93 -373 -91 -1086 5
-1457 61 -237 179 -401 345 -480 123 -59 214 -76 394 -76 220 1 376 36 623
141 59 24 112 47 118 49 7 3 18 -23 29 -68 9 -40 19 -81 22 -90 4 -16 18 -18
104 -18 l99 0 0 679 0 678 -37 7 c-96 15 -608 3 -800 -20 l-53 -6 0 -104 0
-104 315 0 315 0 -2 -382 -3 -382 -116 -38 c-353 -114 -685 -122 -870 -21
-134 72 -215 226 -256 485 -23 146 -26 784 -5 943 32 230 84 367 180 467 67
71 144 110 262 134 74 15 122 16 365 10 154 -3 318 -10 365 -15 47 -5 118 -12
158 -16 l72 -8 0 101 c0 114 11 102 -110 126 -290 58 -735 82 -922 51z"/>
<path d="M16420 8795 c-289 -47 -450 -179 -517 -425 -26 -95 -26 -505 0 -600
55 -202 171 -312 394 -371 67 -18 121 -22 373 -29 273 -6 299 -9 354 -30 75
-29 128 -77 163 -148 28 -57 28 -57 28 -272 0 -205 -1 -218 -24 -267 -26 -58
-87 -120 -148 -152 -119 -60 -296 -76 -693 -62 -168 6 -340 14 -382 17 l-78 7
0 -107 c0 -58 3 -106 8 -106 4 0 34 -5 67 -10 116 -19 392 -41 590 -47 401
-12 624 44 774 194 74 75 111 141 138 250 25 101 25 481 0 573 -56 208 -185
341 -382 396 -46 13 -128 18 -355 24 -262 6 -302 10 -361 28 -168 55 -218 138
-227 373 -11 331 70 462 320 513 119 25 445 21 826 -10 l82 -6 0 105 0 105
-67 11 c-298 49 -729 72 -883 46z"/>
<path d="M2883 8775 c-135 -29 -258 -118 -312 -223 -57 -113 -55 -61 -59
-1249 l-3 -1093 141 0 140 0 0 548 0 549 107 6 c58 4 194 7 302 7 108 0 321 3
474 7 l277 6 0 102 0 102 -272 6 c-149 4 -362 7 -473 7 -111 0 -250 3 -309 7
l-107 6 3 387 3 386 30 59 c36 69 99 118 175 134 33 7 236 11 575 11 l525 0 0
109 0 108 -132 7 c-151 8 -824 26 -943 25 -44 0 -108 -7 -142 -14z"/>
<path d="M4841 8775 c-145 -32 -260 -114 -314 -225 -56 -115 -57 -118 -57
-1060 0 -539 4 -889 10 -930 29 -183 150 -303 346 -345 105 -22 736 -16 1137
11 l97 7 0 108 0 109 -518 0 c-332 0 -540 4 -577 11 -77 14 -127 40 -160 83
-51 67 -55 100 -55 476 l0 347 287 6 c157 4 379 7 492 7 113 0 243 3 289 7
l82 6 0 103 0 104 -168 0 c-93 0 -352 3 -575 7 l-407 6 0 347 c0 387 4 416 64
487 20 22 58 51 88 64 l53 24 553 3 552 3 0 108 0 108 -172 7 c-288 11 -797
26 -893 25 -49 0 -119 -7 -154 -14z"/>
<path d="M6880 8779 c-74 -12 -189 -68 -243 -118 -52 -48 -100 -134 -122 -216
-23 -90 -23 -1822 1 -1925 18 -79 74 -174 125 -213 115 -85 216 -107 501 -107
218 0 679 14 846 26 l92 6 0 109 0 108 -547 3 c-626 4 -618 3 -691 82 -22 24
-46 61 -53 82 -9 27 -14 146 -16 395 l-4 356 293 6 c161 4 385 7 498 7 113 0
242 3 288 7 l82 6 0 102 0 102 -572 7 c-315 4 -577 11 -581 16 -5 4 -7 164 -5
356 5 403 7 414 88 487 81 73 61 71 673 74 l547 4 0 108 0 108 -162 7 c-266
11 -807 26 -898 25 -47 -1 -110 -5 -140 -10z"/>
<path d="M8560 7708 c0 -1179 0 -1163 57 -1276 33 -66 107 -136 177 -168 109
-50 165 -54 737 -54 l529 0 0 125 0 125 -480 0 c-492 0 -548 4 -622 41 -43 22
-90 76 -109 127 -11 30 -14 230 -17 1100 l-3 1062 -134 0 -135 0 0 -1082z"/>
<path d="M10430 7500 l0 -1290 135 0 135 0 0 1290 0 1290 -135 0 -135 0 0
-1290z"/>
<path d="M11300 7500 l0 -1290 135 0 135 0 2 1050 3 1049 671 -1047 672 -1047
116 -3 116 -3 0 1291 0 1290 -140 0 -140 0 -2 -1048 -3 -1048 -670 1046 -670
1045 -113 3 -112 3 0 -1291z"/>
</g>
</svg>
